<?xml version="1.0" ?><!DOCTYPE svg  PUBLIC '-//W3C//DTD SVG 1.1//EN'  'http://www.w3.org/Graphics/SVG/1.1/DTD/svg11.dtd'><svg height="512px" style="enable-background:new 0 0 512 512;" version="1.1" viewBox="0 0 512 512" width="512px" xml:space="preserve" xmlns="http://www.w3.org/2000/svg" xmlns:xlink="http://www.w3.org/1999/xlink"><g id="_x35_4"><g><g><path d="M261.154,489.369c-1.216,0-2.389-0.631-3.044-1.74c-0.673-1.146-0.631-2.511,0-3.59     c-0.837-0.443-1.459-1.213-1.716-2.135c-12.969,7.096-14.239,6.773-15.558,6.44c-0.992-0.255-1.819-0.867-2.323-1.747     c-0.916-1.582-0.837-2.802,0.397-4.202c-1.743,0.977-3.12,1.753-3.629,2.05c-0.07,0.049-0.139,0.097-0.209,0.14     c-1.225,0.807-2.829,0.77-4.018-0.091c-0.354-0.255-0.646-0.57-0.876-0.916c-10.158,4.761-12.593,4.209-14.142,3.863     c-1.422-0.334-2.581-1.158-3.263-2.335c-0.937-1.619-0.44-3.688,1.128-4.718c24.921-16.296,57.083-37.375,80.765-52.979     c-0.357,0.188-0.728,0.388-1.098,0.588c-7.138,3.863-15.834,8.563-24.882,13.542c-1.485,0.964-3.008,1.946-4.572,2.965     c-2.611,1.698-5.21,3.402-7.778,5.095c-18.469,13.348-31.798,22.698-41.386,28.302c-3.378,2.384-5.349,3.791-5.419,3.845     c-0.81,0.576-1.828,0.795-2.802,0.576c-0.061-0.006-0.118-0.018-0.182-0.036c-4.057,1.759-7.083,2.384-9.324,1.904     c-1.674-0.357-3.041-1.328-3.854-2.735c-1.786-3.093,1.146-5.021,3.735-6.713c1.71-1.122,4.245-2.705,7.741-4.84     c6.556-3.99,15.667-9.411,26.219-15.688c11.101-6.599,25.501-15.155,39.761-23.81c0.934-0.667,1.855-1.328,2.766-1.982     c-26.092,15.428-56.241,33.712-79.319,47.927c-1.652,1.013-3.809,0.509-4.839-1.128c-1.034-1.644-0.555-3.803,1.077-4.858     l15.091-9.709l-16.44,9.497c-1.688,0.971-3.845,0.395-4.821-1.292c-0.979-1.686-0.409-3.838,1.271-4.82     c1.644-0.959,3.312-1.941,5.013-2.93c-9.667,5.379-13.663,6.695-15.855,6.168c-1.107-0.279-2.022-0.946-2.571-1.904     c-0.482-0.837-0.604-1.826-0.333-2.754c0.267-0.922,0.903-1.697,1.755-2.141c0.27-0.139,17.954-9.394,41.52-22.335     c10.91-6.792,22.714-14.281,33.554-21.158c15.9-10.098,28.842-18.254,39.376-24.779l-117.919,68.085     c-1.689,0.977-3.848,0.395-4.824-1.292c-0.5-0.867-0.977-2.298-0.418-4.209c0.461-1.576,1.201-4.105,9.73-10.788     c0.054-0.382,0.139-0.788,0.267-1.213c0.045-0.164,0.094-0.334,0.152-0.51c-1.237-0.569-1.956-1.437-2.365-2.146     c-0.697-1.213-0.694-2.383-0.206-3.541c-0.716,0.036-1.365-0.013-1.947-0.134c-1.568-0.346-2.847-1.249-3.602-2.565     c-0.837-1.449-0.531-3.257,0.655-4.354c-0.385-0.339-0.712-0.733-0.97-1.176c-0.491-0.855-0.606-1.868-0.318-2.802     c0.288-0.935,0.946-1.717,1.822-2.135c-0.3-0.261-0.558-0.57-0.758-0.916c-2.162-3.748,1.858-7.447,6.925-11.547     c1.261-1.019,2.714-2.141,4.357-3.365c-0.651-0.479-1.073-1.031-1.346-1.498c-0.564-0.977-0.606-2.116-0.212-3.099     c-1.107-0.644-1.783-1.486-2.192-2.189c-0.573-0.995-0.709-2.189-0.391-3.372c0.115-0.431,0.255-0.939,0.719-1.686     c-3.084,1.691-4.836,2.644-4.918,2.687c-1.637,0.879-3.678,0.352-4.672-1.226c-0.992-1.57-0.595-3.645,0.913-4.736     c0.133-0.103,5.424-3.947,14.015-10.042c-1.619,0.691-3.536,0.072-4.445-1.485c-0.576-1.001-0.712-2.202-0.391-3.385     c0.127-0.479,0.282-1.049,0.855-1.897c-0.4,0.291-0.616,0.442-0.643,0.467c-0.813,0.582-1.834,0.8-2.811,0.594     c-0.982-0.212-1.822-0.824-2.322-1.686c-1.753-3.038,0.452-4.846,6.024-8.63c-0.424-0.382-0.788-0.83-1.076-1.328     c-0.482-0.83-0.601-1.825-0.34-2.74c0.267-0.922,0.895-1.698,1.744-2.147c1.641-0.873,3.29-1.753,4.937-2.626     c-1.043-0.109-2.025-0.679-2.629-1.631c-0.712-1.122-0.709-2.499-0.109-3.59c-2.56,0.958-4.333,1.219-5.61,0.922     c-1.234-0.285-2.247-1.025-2.853-2.08c-0.485-0.838-0.604-1.844-0.325-2.771c0.282-0.94,0.937-1.717,1.807-2.147     c0.106-0.055,2.969-1.485,7.851-3.96c-0.585-0.395-1.073-0.903-1.425-1.51c-0.537-0.928-1.055-2.469-0.467-4.476     c0.449-1.528,1.571-3.19,3.426-5.052c-0.024-0.006-0.052-0.012-0.079-0.024c-0.937-0.224-1.792-0.861-2.274-1.698     c-0.215-0.375-0.37-0.782-0.449-1.2c-2.447,1.007-3.39,1.019-4.151,0.825c-0.916-0.237-1.789-0.892-2.262-1.717     c-0.279-0.485-0.458-1.007-0.534-1.559c-0.143-0.018-0.285-0.049-0.421-0.085c-0.91-0.242-1.686-0.831-2.159-1.649     c-1.225-2.129-0.254-3.596,1.28-4.803l-0.003-0.013c0.009-0.006,0.024-0.012,0.045-0.03c0.67-0.516,1.44-0.988,2.18-1.443     c1.528-0.928,3.778-2.268,6.625-3.953c0.379-0.213,0.761-0.443,1.158-0.674c-0.54-0.357-0.989-0.818-1.31-1.376     c-0.473-0.825-0.597-1.796-0.349-2.711c0.251-0.916,0.858-1.687,1.686-2.147c62.499-34.846,130.338-75.528,142.879-87.872     c-5.785,1.076-23.02,7.698-73.263,40.271c-33.93,21.998-66.274,45.061-66.599,45.291c-0.81,0.576-1.828,0.783-2.798,0.576     c-0.974-0.206-1.813-0.824-2.311-1.686c-0.455-0.782-0.892-2.074-0.416-3.79c0.194-0.686,0.443-1.595,1.665-3.142     c-0.946-0.219-1.755-0.831-2.244-1.674c-0.052-0.091-0.1-0.176-0.148-0.267c-1.486,0.236-2.771,0.242-3.851,0.006     c-2.29-0.503-3.487-1.855-4.093-2.898c-0.946-1.638-0.431-3.729,1.167-4.749l73.546-46.734c-3.745,2.156-7.689,4.43-11.838,6.813     c-4.885,2.802-10.003,5.74-15.097,8.684c-15.273,9.8-30.958,20.067-46.162,30.231c-0.81,0.539-1.811,0.722-2.766,0.503     c-0.949-0.225-1.768-0.831-2.256-1.68c-0.54-0.928-0.676-2.044-0.385-3.123c0.358-1.322,1.689-2.93,4.533-5.197     c-0.831-0.243-1.571-0.801-2.041-1.607c-0.982-1.674-0.416-3.839,1.255-4.821c2.504-1.474,5.097-3.008,7.753-4.584     c-0.843-0.57-1.386-1.262-1.726-1.85c-0.494-0.855-0.64-1.862-0.416-2.839l-3.951,2.499c-1.635,1.031-3.793,0.552-4.849-1.062     c-1.052-1.625-0.606-3.79,1-4.866c0.061-0.037,1.553-1.037,4.148-2.757c-0.249-0.254-0.467-0.542-0.648-0.858     c-0.974-1.686-0.4-3.845,1.289-4.821c0.403-0.234,0.81-0.47,1.213-0.707c-0.406-0.267-0.767-0.618-1.049-1.058     c-1.031-1.607-0.591-3.742,0.985-4.818l7.587-5.188c-0.1-0.018-0.197-0.042-0.291-0.063c-1.086-0.261-1.98-0.925-2.523-1.858     c-0.686-1.183-0.843-2.608-0.443-4.003c0.143-0.512,0.376-1.037,0.691-1.58c-0.916-1.495-0.588-3.459,0.788-4.579     c-2.067,0.797-3.375,0.937-4.427,0.682c-1.092-0.264-1.995-0.931-2.541-1.877c-0.867-1.507-0.509-3.417,0.84-4.512     c3.375-2.726,7.144-5.779,10.986-8.896c-2.696,1.832-5.379,3.69-7.969,5.516c-0.81,0.573-1.825,0.779-2.795,0.564     c-0.974-0.209-1.808-0.825-2.302-1.683c-1.474-2.557-0.282-3.63,4.16-7.617c0.952-0.861,2.353-2.119,3.894-3.529     c-0.285-0.206-0.54-0.458-0.764-0.755c-1.162-1.568-0.834-3.778,0.734-4.939c10.519-7.802,12.429-7.411,13.693-7.15     c1.073,0.225,1.998,0.889,2.541,1.826c0.315,0.549,0.524,1.08,0.588,1.644c15.798-9.828,18.229-9.291,19.897-8.93     c1.207,0.267,2.198,0.982,2.79,2.008c1.504,2.61-0.506,4.314-2.45,5.964c-1.094,0.928-2.668,2.238-4.563,3.8     c-0.292,0.242-0.595,0.491-0.904,0.746c20.176-13.026,21.729-13.736,24.051-13.172c0.943,0.225,1.85,0.895,2.332,1.731     c0.215,0.373,0.358,0.77,0.425,1.173c7.414-3.478,9.542-3.026,10.855-2.75c1.471,0.313,2.662,1.152,3.363,2.365     c0.228,0.394,0.379,0.813,0.464,1.246c0.255-0.164,0.509-0.324,0.761-0.491c1.622-1.049,3.787-0.604,4.86,1.007     c0.843,1.264,0.761,2.88-0.088,4.042c6.226-3.275,6.923-3.096,7.923-2.838c0.916,0.24,1.734,0.858,2.208,1.68     c0.333,0.579,0.546,1.131,0.606,1.698l0.157-0.097c0.644-0.412,1.201-0.764,1.692-1.07l1.752-1.107l0.037,0.058     c1.479-0.788,1.867-0.694,2.668-0.506c0.588,0.137,1.109,0.422,1.54,0.807c5.167-1.998,6.684-1.646,7.738-1.401     c1.298,0.3,2.354,1.067,2.983,2.147c0.516,0.903,0.698,1.965,0.516,3.029c7.09-4.87,7.375-4.806,8.794-4.488     c0.964,0.215,1.801,0.831,2.292,1.689c0.546,0.94,0.673,1.825,0.479,2.684l3.42-1.971c1.577-0.907,3.56-0.47,4.615,0.967     c13.875-6.701,16.737-6.031,18.405-5.649c1.419,0.331,2.577,1.158,3.25,2.329c0.358,0.616,0.504,1.295,0.461,1.959     c1.135-0.143,2.11-0.118,2.954,0.066c2.122,0.464,3.238,1.726,3.802,2.699c0.958,1.674,0.406,3.809-1.249,4.8     c-1.783,1.067-3.59,2.152-5.428,3.259c1.14,0.691,1.844,1.574,2.269,2.317c0.479,0.821,0.6,1.798,0.346,2.71     c-0.255,0.913-0.861,1.686-1.692,2.144c-0.686,0.385-1.383,0.77-2.074,1.155c2.189,0.567,3.342,1.865,3.93,2.871     c0.612,1.064,0.759,2.356,0.406,3.639c-0.115,0.409-0.248,0.889-0.582,1.513c2.511-1.586,4.961-3.138,7.344-4.651     c0.813-0.519,1.808-0.676,2.735-0.452c0.934,0.233,1.729,0.831,2.214,1.667c1.358,2.347,0.739,4.291-3.942,8.081     c0.14,0.161,0.261,0.337,0.37,0.525c0.346,0.594,0.503,1.276,0.467,1.956c0.886,0.252,1.655,0.849,2.104,1.644     c0.418,0.719,0.618,1.537,0.582,2.383c1.007,0.4,1.819,1.088,2.335,1.986c0.661,1.152,1.298,3.051,0.563,5.57     c-1.073,3.672-5.124,7.963-11.867,12.999c0.267,0.74,0.437,1.674,0.297,2.79c0.37,0.34,0.697,0.737,0.946,1.18     c0.879,1.522,0.503,3.432-0.837,4.515c3.444-1.283,4.415-1.043,5.245-0.834c1.08,0.267,1.972,0.928,2.505,1.858     c0.485,0.843,0.958,2.238,0.418,4.105c-0.369,1.28-0.934,3.227-6.101,7.787c2.378,0.661,3.633,2.067,4.27,3.178     c0.467,0.813,0.601,1.783,0.352,2.692c-0.242,0.909-0.843,1.686-1.667,2.146c-26.908,15.295-61.463,35.429-91.369,53.579     l20.148-11.638c11.711-7.181,21.201-12.614,28.915-16.689l33.087-19.103c1.681-0.977,3.852-0.4,4.828,1.292     c0.503,0.873,0.982,2.322,0.437,4.27c-0.183,0.654-0.437,1.54-1.389,2.917c1.024,0.685,1.673,1.504,2.086,2.213     c0.467,0.813,0.588,1.783,0.346,2.693c-0.249,0.903-0.843,1.68-1.655,2.146c-14.379,8.192-30.983,17.811-47.866,27.744     c-10.062,6.289-22.227,13.657-36.963,22.293c-2.953,1.734-5.91,3.456-8.845,5.154c-27.62,16.896-50.519,31.698-58.097,38.503     c0.992-0.206,2.265-0.552,3.902-1.11l140.554-87.417c1.613-1.001,3.748-0.546,4.81,1.036c0.521,0.783,0.679,1.705,0.533,2.565     c4.761-2.765,7.538-4.372,7.647-4.433l0.036,0.066c1.449-0.703,1.862-0.612,2.547-0.442c0.94,0.218,1.753,0.831,2.244,1.668     c0.474,0.806,0.595,1.776,0.358,2.68c-0.249,0.904-0.844,1.681-1.65,2.147c-0.782,0.448-1.559,0.903-2.353,1.352     c-1.043,0.661-2.444,1.559-4.1,2.633c2.347-0.516,3.359-0.279,4.124-0.092c1.358,0.322,2.468,1.116,3.117,2.238     c0.643,1.115,1.243,2.965,0.473,5.477c-0.521,1.716-1.729,3.923-4.682,7.028c0.206,0.261,0.376,0.521,0.521,0.77     c0.971,1.674,0.4,3.821-1.268,4.804c-3.378,1.995-6.871,4.063-10.461,6.191c2.541-1.073,4.033-1.285,5.161-1.013     c1.109,0.261,2.025,0.928,2.577,1.88c0.479,0.843,0.601,1.838,0.321,2.771c-0.2,0.679-0.588,1.273-1.128,1.723     c0.291,0.036,0.54,0.097,0.771,0.146c2.134,0.484,3.244,1.722,3.79,2.668c0.485,0.837,0.601,1.837,0.327,2.759     c-0.061,0.213-0.14,0.4-0.23,0.589c0.419,0.291,0.771,0.667,1.037,1.134c0.595,1.019,1.158,2.717,0.479,5.027     c-0.467,1.625-1.286,4.409-8.515,10.776c0.892,2.02,0.346,4.185-4.651,8.647c1.298-0.139,2.62,0.485,3.354,1.674     c0.994,1.638,0.51,3.772-1.109,4.81l-4.882,3.147c2.256-0.789,2.947-0.619,3.584-0.449c1.013,0.255,1.855,0.886,2.371,1.771     c0.867,1.51,1.183,2.983-1.05,5.633c0.965,0.546,1.747,1.316,2.311,2.299c0.504,0.879,0.637,1.91,0.353,2.911     c-0.268,0.958-0.782,1.819-2.79,3.329c0.127,0.176,0.242,0.357,0.346,0.527c1.644,2.856-1.007,4.694-2.286,5.58     c-0.831,0.575-2.056,1.412-3.62,2.455c-3.094,2.08-7.532,5.034-12.851,8.563c-10.644,7.034-24.858,16.386-39.085,25.725     c-5.907,3.882-11.826,7.769-17.48,11.474c20.979-12.649,47.329-29.758,72.06-46.683c0.813-0.552,1.825-0.752,2.777-0.528     c0.958,0.213,1.789,0.819,2.28,1.674c0.31,0.54,0.619,1.311,0.655,2.28c2.152-0.569,3.032-0.363,3.735-0.194     c1.219,0.285,2.207,1.007,2.802,2.038c1.213,2.099,0.388,4.166-1.207,6.076c0.813,0.268,1.511,0.831,1.94,1.577     c1.007,1.746,0.765,3.39-0.976,5.482c0.406,0.291,0.752,0.667,1.007,1.115c0.399,0.691,0.782,1.723,0.685,3.063     c0.559,0.364,1.025,0.85,1.364,1.443c0.922,1.602,0.455,3.651-1.085,4.694l-1.898,1.279c0.437,0.34,0.819,0.765,1.104,1.262     c1.759,3.044-0.643,5.239-6.592,10.176c0.437-0.049,0.867-0.024,1.298,0.085c0.922,0.236,1.71,0.837,2.184,1.661     c0.977,1.687,1.504,2.596-3.906,8.696c1.092-0.43,1.468-0.321,2.038-0.176l-0.909,3.414l-3.069,1.753     c1.013,1.759,3.1,2.147,4.464,1.486c-1.243,0.606-13.227,7.599-20.479,11.867c-1.54,0.897-3.499,0.516-4.585-0.897     c-1.092-1.406-0.958-3.396,0.304-4.651c1.334-1.334,2.704-2.71,4.051-4.081c-21.602,12.881-22.705,12.614-24.124,12.244     c-0.922-0.23-1.753-0.861-2.231-1.686c-0.892-1.553-0.485-3.53,0.952-4.598c3.263-2.432,6.816-5.094,10.437-7.841     c-17.035,11.517-20.655,13.366-23.548,12.698c-1.109-0.254-2.02-0.921-2.577-1.886c-0.188-0.327-0.321-0.673-0.4-1.037     c-5.264,2.771-9.782,5.076-12.99,6.695C262.234,489.248,261.694,489.369,261.154,489.369z M218.464,444.378     c-4,2.486-7.623,4.724-10.925,6.737c5.082-3.014,10.294-6.125,15.567-9.29C221.536,442.686,219.986,443.541,218.464,444.378z      M214.025,426.519c-1.11,0.733-2.198,1.455-3.269,2.171l58.276-33.646c-3.93,2.171-7.905,4.373-11.868,6.586     C239.332,411.582,225.211,419.769,214.025,426.519z M338.512,324.625c-15.719,4.13-85.21,46.319-151.294,89.34     c10.321-5.16,23.997-12.092,38.896-19.866c8.854-5.367,17.687-10.716,26.262-15.926c37.427-26.386,63.406-43.839,77.5-47.812     c2.401-1.589,3.754-2.492,3.82-2.534c0.771-0.51,1.698-0.71,2.607-0.534C337.371,326.178,338.068,325.304,338.512,324.625z      M326.462,370.047l-3.924,2.262c0.867-0.4,1.668-0.758,2.407-1.067C325.479,370.829,325.977,370.429,326.462,370.047z      M272.482,329.392c-7.684,4.718-16.376,10.225-26.201,16.652c-5.825,3.809-11.61,7.659-17.238,11.443     c3.032-1.746,6.11-3.517,9.197-5.312c5.2-3.178,10.825-6.586,16.917-10.249c9.587-5.768,19.194-11.456,28.2-16.763     c9.806-6.125,17.525-11.164,23.608-15.33c-1.747,0.873-3.608,1.831-5.615,2.893L272.482,329.392z M251.421,315.795     c-20.397,12.329-41.392,25.24-59.449,36.483c8.624-4.646,17.229-9.333,25.713-14.015c8.493-5.792,17.623-11.923,26.893-18.005     C246.918,318.718,249.198,317.232,251.421,315.795z M251.442,298.688c-24.509,12.705-54.167,28.266-63.467,36.24     c8.778-3.341,27.217-13.584,50.177-27.374c0.649-0.431,1.295-0.861,1.938-1.292C243.986,303.654,247.773,301.132,251.442,298.688     z M338.221,238.689c-10.285,8.554-36.557,23.733-88.137,52.375c-3.39,1.886-6.838,3.797-10.282,5.713     c4.312-2.244,8.866-4.615,13.678-7.107c21.319-11.031,43.357-22.438,59.986-32.345c18.156-10.807,23.79-16.376,25.531-18.878     C338.748,238.52,338.487,238.602,338.221,238.689z M219.641,240.182c-9.945,5.64-20.683,11.771-28.229,16.383     c1.483-0.664,3.172-1.471,5.094-2.441C204.095,249.578,211.906,244.872,219.641,240.182z M257.661,209.038     c-6.528,4.242-12.556,8.123-18.117,11.668c11.319-6.522,22.696-13.254,30.61-18.472     C266.576,204.062,262.367,206.363,257.661,209.038z" style="fill:#F0604E;"/></g><g><path d="M271.191,165.678c-1.141,0-2.244-0.546-2.924-1.546c-1.043-1.531-0.728-3.602,0.722-4.754     c0.825-0.661,1.681-1.34,2.523-2.032c-0.109-0.139-0.2-0.282-0.291-0.431c-0.606-1.055-1.152-2.001,0.236-4.481l-0.819,0.473     c-1.686,0.976-3.845,0.4-4.827-1.292c-1.68-2.908-0.248-5.082,9.588-13.757c-0.503-0.324-0.915-0.758-1.219-1.289     c-0.771-1.328-0.825-2.29,0-3.584c-2.377,1.374-3.614,1.644-4.942,1.353c-1.055-0.233-1.953-0.892-2.486-1.81     c-1.838-3.181,1.304-5.594,4.451-7.914c-0.346-0.233-0.661-0.531-0.922-0.892c-1.062-1.467-0.837-3.502,0.527-4.706l1.541-1.374     c-0.553-0.227-1.05-0.594-1.443-1.094c-1.122-1.45-0.952-3.521,0.394-4.764l1.953-1.807c-0.109-0.134-0.2-0.273-0.285-0.422     c-1.237-2.144-0.624-4.151,2.274-7.271c-1.213,0.531-1.644,0.421-2.408,0.225c-0.922-0.234-1.722-0.84-2.195-1.665     c-0.83-1.443-1.315-2.287,2.135-7.402c-1.516,0.913-2.498,1.155-3.662,0.913c-0.989-0.203-1.935-0.879-2.438-1.752     c-0.788-1.368-0.576-3.096,0.528-4.23c1.115-1.14,2.237-2.301,3.359-3.463c-1.929,0.897-2.984,1.004-4.033,0.755     c-1.031-0.246-1.88-0.876-2.396-1.78c-0.788-1.355-0.576-3.072,0.497-4.206c0.315-0.327,0.631-0.658,0.952-0.991     c-1.759,0.785-3.014,0.961-4.166,0.709s-2.107-0.946-2.684-1.944c-0.976-1.689-0.397-3.851,1.292-4.827     c0.834-0.485,1.786-0.582,2.653-0.358c2.358-1.006,8.314-5.221,11.638-7.577c7.744-5.479,9.46-6.623,11.674-6.137     c1.019,0.228,1.904,0.87,2.42,1.765c1.036,1.804,1.091,2.687-2.214,6.543c2.589-1.562,3.384-1.692,4.621-1.395     c0.946,0.228,1.795,0.853,2.28,1.695c1.419,2.453-0.013,4.03-3.457,7.838c-0.673,0.755-1.474,1.623-2.383,2.599     c0.945,0.328,1.722,0.964,2.219,1.838c0.729,1.249,0.619,2.813-0.278,3.954c-1.165,1.48-2.371,3.032-3.554,4.576     c13.535-8.227,13.724-8.178,15.543-7.714c0.922,0.233,1.74,0.849,2.213,1.674c2.123,3.672-1.182,6.431-12.128,15.57     c-0.079,0.063-0.152,0.127-0.23,0.191c0.169,0.136,0.321,0.291,0.467,0.461c0.255,0.306,0.454,0.649,0.594,1.003     c2.862-1.346,3.608-1.164,4.343-0.988c0.945,0.228,1.85,0.892,2.334,1.731c0.485,0.837,0.589,1.801,0.353,2.684l2.656-1.531     c1.68-0.974,3.845-0.397,4.821,1.294c1.977,3.423-0.14,6.216-10.995,13.948c0.643,1.322,0.54,2.671-0.419,4.391     c1.062-0.707,2.104-1.419,3.13-2.114c0.813-0.558,1.819-0.752,2.783-0.53c0.952,0.218,1.783,0.831,2.274,1.68     c1.491,2.599-0.667,4.394-1.819,5.361c-0.673,0.555-1.638,1.349-2.814,2.32c-3.347,2.762-6.392,5.285-9.114,7.577     c0.728,0.194,1.407,0.631,1.898,1.277c1.079,1.413,0.939,3.411-0.328,4.654c-1.158,1.131-2.341,2.32-3.511,3.511     c0.018,0.003,0.03,0.009,0.048,0.012c0.94,0.23,1.747,0.831,2.22,1.667c1.825,3.15-0.728,5.558-8.362,12.053     c-0.971,0.825-1.947,1.643-2.869,2.411c-0.218,0.925-0.794,1.765-1.68,2.274l-4.1,2.365     C272.397,165.523,271.791,165.678,271.191,165.678z" style="fill:#F89F2A;"/></g><g><path d="M231.827,170.102c-0.977,0-1.983-0.409-2.753-1.713c-1.289-2.232-0.658-3.238,3.187-7.614     c-0.052-0.079-0.1-0.154-0.146-0.23c-0.161-0.279-0.288-0.54-0.376-0.803c-0.31,0.179-0.616,0.361-0.925,0.537     c-0.81,0.473-1.78,0.609-2.689,0.361c-0.913-0.243-1.686-0.84-2.153-1.656c-1.286-2.247-0.306-3.329,2.604-6.543     c0.861-0.956,2.298-2.541,3.757-4.169c-0.176-0.413-0.267-0.858-0.276-1.307c-0.018-1.04-0.042-2.153-0.073-3.208     c-1.622,1.046-3.514,2.35-5.158,3.551c-0.807,0.591-1.829,0.81-2.811,0.606c-0.979-0.209-1.828-0.822-2.329-1.692     c-0.813-1.404-1.246-2.153,2.398-9.248c-0.288-0.249-0.537-0.549-0.734-0.892c-0.603-1.046-0.655-1.944-0.3-2.877     c-4.269,2.705-5.961,3.278-7.674,2.883c-1.058-0.239-1.935-0.882-2.465-1.807c-0.831-1.434-0.549-3.247,0.67-4.366l3.302-3.038     c-1.459,0.931-2.911,1.868-4.336,2.795c-0.816,0.528-1.808,0.694-2.75,0.47c-0.943-0.228-1.75-0.831-2.235-1.671     c-1.592-2.756,0.616-4.909,3.557-7.559c-0.973-0.133-1.883-0.673-2.468-1.553c-1.031-1.559-0.67-3.645,0.821-4.772     c2.308-1.738,4.658-3.518,6.978-5.292c-0.395-0.318-0.728-0.706-0.986-1.158c-0.633-1.095-0.679-2.074-0.327-2.999     c-0.503,0.328-1.004,0.658-1.504,0.988l-2.377,1.58c-1.628,1.077-3.82,0.637-4.897-0.982c-1.08-1.628-0.643-3.814,0.982-4.9     c1.255-0.833,2.471-1.64,3.648-2.422l1.085-0.719c-0.243-0.243-0.455-0.519-0.631-0.822c-0.958-1.659-0.421-3.772,1.21-4.776     c0.785-0.482,1.564-0.961,2.353-1.446c-0.364-0.251-0.691-0.573-0.949-0.964c-1.046-1.577-0.664-3.693,0.861-4.81l9.406-6.861     c-0.904-0.294-1.646-0.892-2.12-1.708c-0.616-1.07-0.767-2.347-0.431-3.599c0.333-1.234,1.207-2.522,2.678-3.96     c-0.495-1.374-0.097-2.962,1.091-3.93l3.072-2.505c-0.974,0.243-1.646,0.204-2.308,0.043c-1.037-0.255-1.895-0.892-2.417-1.795     c-0.843-1.458-0.54-3.305,0.722-4.417c2.568-2.266,5.512-4.87,8.544-7.55c-0.052-0.006-0.1-0.018-0.151-0.031     c-0.964-0.215-1.792-0.824-2.283-1.68c-1.319-2.286-0.215-3.502,2.729-6.759c1.574-1.737,5.646-6.243,7.735-8.96     c-0.158-1.064,0.176-2.183,0.998-3.002c0.831-0.825,2.144-1.898,3.927-1.655c1.088,0.146,2.125,0.84,2.671,1.789     c0.488,0.846,0.722,1.631,0.537,2.61c6.595-3.717,8.011-3.399,8.933-3.193c1.076,0.243,1.968,0.895,2.511,1.829     c1.434,2.486-0.44,4.218-1.947,5.609c-0.749,0.691-1.789,1.638-3.035,2.756c9.248-5.864,9.97-5.964,11.692-5.543     c0.939,0.225,1.808,0.871,2.292,1.708c0.776,1.352,0.576,3.035-0.455,4.157c1.116-0.251,2.057-0.312,2.79-0.164     c1.31,0.282,2.39,1.043,3.026,2.15c0.521,0.907,0.661,1.98,0.376,3.02c-0.146,0.54-0.4,1.064-0.819,1.622     c0.177,0.164,0.328,0.349,0.474,0.552c1.085,1.577,0.716,3.729-0.831,4.861l-2.856,2.089c1.188-0.413,1.589-0.31,2.044-0.188     c0.916,0.233,1.723,0.849,2.201,1.668c0.612,1.07,0.722,2.068,0.357,3.096c1.177,0.428,2.044,1.449,2.269,2.702     c0.249,1.386-0.352,2.787-1.522,3.563l-25.543,16.956c1.14,2.426-0.103,4.476-6.025,9.175c0.112,0.139,0.212,0.285,0.303,0.443     c1.713,2.962-0.648,4.927-5.354,8.842c-0.731,0.612-1.55,1.282-2.453,2.013c0.127,0.152,0.242,0.318,0.346,0.494     c0.782,1.358,0.916,2.462-0.094,4.042c3.208-1.461,4.018-1.264,4.724-1.091c1.007,0.242,1.844,0.864,2.359,1.75     c0.828,1.434,0.545,3.248-0.667,4.366l-4.009,3.681c0.154,0.018,0.313,0.045,0.47,0.085c1.025,0.233,1.914,0.885,2.435,1.789     c0.767,1.328,0.588,3.005-0.446,4.139c-2.98,3.269-6.122,6.765-8.626,9.591c0.361,0.958,0.291,2.044-0.215,2.957     c-0.306,0.558-0.622,1.131-0.937,1.713c1.456-0.542,2.114-0.406,2.681-0.285c1.055,0.221,1.968,0.879,2.499,1.804     c0.343,0.591,0.552,0.955,0.7,4.26c0.667-0.279,1.413-0.342,2.129-0.182c0.961,0.215,1.789,0.828,2.283,1.68     c1.316,2.286,0.251,3.702-3.06,7.496c0.212,0.236,0.391,0.506,0.534,0.804c0.146,0.303,0.246,0.621,0.303,0.949     c0.315-0.012,0.631,0.055,1.037,0.155c0.913,0.236,1.701,0.834,2.174,1.655c0.358,0.622,0.555,1.171,0.57,1.747     c1.31-0.588,1.695-0.488,2.395-0.304l-0.9,3.417l-3.056,1.765c1.019,1.765,3.123,2.128,4.49,1.456     c-0.831,0.406-6.986,4.018-10.297,5.955l-2.623,1.534C234.368,169.377,233.122,170.102,231.827,170.102z" style="fill:#F89F2A;"/></g></g></g><g id="Layer_1"/></svg>